<svg xmlns="http://www.w3.org/2000/svg" width="24.969" height="20"><path d="M2.49.01h19.974a2.5 2.5 0 0 1 2.5 2.5v14.98a2.5 2.5 0 0 1-2.5 2.5H2.49a2.5 2.5 0 0 1-2.5-2.5V2.51a2.5 2.5 0 0 1 2.5-2.5zm12.484 9.16h7.49a.83.83 0 1 1 0 1.66h-7.49a.83.83 0 1 1 0-1.66zm0-3.33h7.49a.83.83 0 1 1 0 1.66h-7.49a.83.83 0 1 1 0-1.66zm0 6.66h7.49a.83.83 0 1 1 0 1.66h-7.49a.83.83 0 1 1 0-1.66zM2.49 5h8.323a.839.839 0 0 1 .832.84v8.32a.83.83 0 0 1-.832.83H2.49a.83.83 0 0 1-.832-.83V5.84A.838.838 0 0 1 2.49 5z" fill="#ececec" fill-rule="evenodd"/></svg>