<svg xmlns="http://www.w3.org/2000/svg" width="25.219" height="22.06"><path d="M1.578.02h22.055a1.571 1.571 0 0 1 1.575 1.57v18.9a1.579 1.579 0 0 1-1.575 1.58H1.578a1.58 1.58 0 0 1-1.575-1.58V1.59A1.571 1.571 0 0 1 1.578.02zm2.363 2.36H21.27a1.571 1.571 0 0 1 1.575 1.57v14.18a1.579 1.579 0 0 1-1.575 1.58H3.941a1.579 1.579 0 0 1-1.575-1.58V3.95a1.571 1.571 0 0 1 1.575-1.57zm3.545 1.57a2.76 2.76 0 1 1-2.757 2.76 2.761 2.761 0 0 1 2.757-2.76zM3.154 18.13l4.726-6.3 3.15 3.94h.788l5.514-11.03 4.726 13.39h-18.9z" fill="#ececec" fill-rule="evenodd"/></svg>