<svg xmlns="http://www.w3.org/2000/svg" width="23.468" height="17.37"><path d="M.23 12.86s3.165 1.45 4.48 1.45a4.1 4.1 0 0 0 4.16-1.48.592.592 0 0 0-.144-.88s-5.395-1.59-5.012-2.52c0 0-.024-.53.669-.41 0 0 .781-.77.4-1.01 0 0-.6-.78-.119-.83 0 0 1.219.33 1.673.45 0 0 .311-.11.024-.32a1.7 1.7 0 0 1-.7-.74s.2-.46.964-.13c0 0 .239-.05.024-.29 0 0-.551-.38-.24-.69 0 0 .876-.63 3.1 2.07 0 0 .406.55.454.02 0 0 1.612-6.86 4.218-7.32a1.408 1.408 0 0 0 1-.09 1.244 1.244 0 0 1 .964-.05.376.376 0 0 0 .526.14s1.028-.4.717.26a5.453 5.453 0 0 1-1.418.98c-.359.02-.287.36.024.4 0 0 4.375.39 4.375 3.59 0 0 .251.76 1.064-.03a9.06 9.06 0 0 1 1.542-.82s.334-.21.287.29a5.849 5.849 0 0 1-1.793 1.96s-.55.7.239.55a5.02 5.02 0 0 0 1.126-.37s.932-.46.5.36a12.041 12.041 0 0 1-2.393 1.27.374.374 0 0 0-.287.34s-.263 8.36-11.213 8.36a11.95 11.95 0 0 1-9.069-3.89s-.691-.74-.142-.62z" fill="#ececec" fill-rule="evenodd"/></svg>