<svg xmlns="http://www.w3.org/2000/svg" width="74" height="74"><circle cx="36.969" cy="36.935" r="33.125" fill="#fff" stroke="#000" stroke-linejoin="round" stroke-width="3"/><path d="M38.468 18.27c5.154 0 9.333 3.66 9.333 8.17v19.83c0 4.51-4.179 8.17-9.333 8.17s-9.333-3.66-9.333-8.17V26.44c0-4.51 4.179-8.17 9.333-8.17zm0 4.67c2.577 0 4.666 1.57 4.666 3.5v8.17c0 1.93-2.089 3.5-4.666 3.5s-4.667-1.57-4.667-3.5v-8.17c-.001-1.93 2.09-3.5 4.667-3.5zm-10.5 12.83h21a3.5 3.5 0 0 1 3.5 3.5V52.1a3.5 3.5 0 0 1-3.5 3.5h-21a3.5 3.5 0 0 1-3.5-3.5V39.27a3.5 3.5 0 0 1 3.5-3.5zm10.5 5.84a2.329 2.329 0 0 1 2.333 2.33v5.83a2.333 2.333 0 0 1-4.666 0v-5.83a2.329 2.329 0 0 1 2.333-2.33zm0-2.34a4.665 4.665 0 1 1-4.667 4.67 4.667 4.667 0 0 1 4.667-4.67z" fill-rule="evenodd"/></svg>