<svg xmlns="http://www.w3.org/2000/svg" width="40.375" height="33.62"><path d="M6.726-.01h26.907a4.039 4.039 0 0 1 4.036 4.04v17.49a4.039 4.039 0 0 1-4.036 4.04H6.726a4.039 4.039 0 0 1-4.036-4.04V4.03A4.039 4.039 0 0 1 6.726-.01zM2.69 22.86h4.036v2.7H2.69v-2.7zm30.943 0h4.036v2.7h-4.036v-2.7zM6.726 4.03h26.907v24.22H6.726V4.03zM2.69 28.25h34.979a2.688 2.688 0 0 1 2.691 2.69c0 1.48-2.55 2.69-4.036 2.69H4.035c-1.486 0-4.036-1.21-4.036-2.69a2.688 2.688 0 0 1 2.691-2.69zm13.454 2.69h8.068a.839.839 0 1 1 0 1.34H16.14a.84.84 0 1 1 .004-1.34zm-5-15.16l1.894-1.91a1.345 1.345 0 0 1 1.894 0l4.736 4.76a1.347 1.347 0 0 1 0 1.9l-1.894 1.91a1.345 1.345 0 0 1-1.894 0l-4.736-4.76a1.347 1.347 0 0 1 .002-1.9zm16.168-7.45l1.894 1.9a1.359 1.359 0 0 1 0 1.91L18.788 22.6a1.327 1.327 0 0 1-1.894 0L15 20.7a1.359 1.359 0 0 1 0-1.91L25.418 8.33a1.327 1.327 0 0 1 1.894 0z" fill-rule="evenodd"/></svg>