<svg xmlns="http://www.w3.org/2000/svg" width="38.531" height="38.09"><path d="M2.74 16.07h33.04L34.509 38.1H4.012zm.688-6.88h31.663a3.44 3.44 0 1 1 0 6.88H3.428a3.44 3.44 0 1 1 0-6.88zm-2.065 6.88h35.793v1.38H1.363v-1.38zm17.9 6.89a1.371 1.371 0 0 1 1.376 1.37v8.26a1.377 1.377 0 1 1-2.753 0v-8.26a1.371 1.371 0 0 1 1.374-1.37zm8.26 0a1.371 1.371 0 0 1 1.376 1.37v8.26a1.377 1.377 0 1 1-2.753 0v-8.26a1.371 1.371 0 0 1 1.374-1.37zm-16.52 0a1.371 1.371 0 0 1 1.376 1.37v8.26a1.377 1.377 0 1 1-2.753 0v-8.26A1.371 1.371 0 0 1 11 22.96zM23.049.38a2.761 2.761 0 0 1 3.761 1.01l4.13 7.16a2.753 2.753 0 1 1-4.769 2.75l-4.13-7.15A2.765 2.765 0 0 1 23.046.38zm-7.572 0a2.76 2.76 0 0 0-3.761 1.01l-4.13 7.16a2.753 2.753 0 1 0 4.769 2.75l4.13-7.15A2.765 2.765 0 0 0 15.474.38z" fill-rule="evenodd"/></svg>