<svg xmlns="http://www.w3.org/2000/svg" width="49.16" height="47.03"><path d="M38.44 47.02a2.112 2.112 0 0 1-1.18-.35l-12.67-8.23-12.68 8.23a2.168 2.168 0 0 1-2.47-.07 2.2 2.2 0 0 1-.8-2.34l3.97-14.1L.76 20.12a2.17 2.17 0 0 1 1.25-3.82l14.21-1.02 6.39-14.02a2.171 2.171 0 0 1 3.95 0l6.39 14.02 14.21 1.02a2.17 2.17 0 0 1 1.25 3.82L36.56 30.16l3.97 14.1a2.165 2.165 0 0 1-2.09 2.76zM24.59 33.69a2.058 2.058 0 0 1 1.17.35l9.04 5.86-2.79-9.91a2.182 2.182 0 0 1 .68-2.24l8.86-7.5-10.19-.74a2.162 2.162 0 0 1-1.82-1.26L24.59 7.38l-4.96 10.87a2.162 2.162 0 0 1-1.82 1.26l-10.19.74 8.86 7.5a2.182 2.182 0 0 1 .68 2.24l-2.79 9.91 9.04-5.86a2.067 2.067 0 0 1 1.18-.35z" fill="#777" fill-rule="evenodd"/></svg>