<svg xmlns="http://www.w3.org/2000/svg" width="45.969" height="46.53"><path d="M45.977 2.06A2.043 2.043 0 0 0 43.498.04L16.539 5.8a2.05 2.05 0 0 0-1.621 1.99l-.186 24.15a10.58 10.58 0 0 0-5.285-1.44H9.36c-5.133 0-9.336 3.57-9.369 7.95-.034 4.42 4.153 8.06 9.333 8.1h.086c5.133 0 9.337-3.57 9.371-7.95l.162-21.06 22.853-4.89-.1 13.53a10.486 10.486 0 0 0-5.286-1.44h-.087c-5.133 0-9.337 3.56-9.37 7.95-.034 4.42 4.154 8.05 9.334 8.09h.085c4.734 0 8.669-3.03 9.282-6.94a2.079 2.079 0 0 0 .088-.55zM9.41 42.44h-.055c-2.87-.02-5.281-1.83-5.265-3.96s2.381-3.88 5.27-3.88h.055c2.871.03 5.283 1.84 5.267 3.97S12.3 42.44 9.41 42.44zm9.557-28.05l.038-4.92 22.852-4.89-.037 4.92zm17.4 22.29h-.053c-2.87-.02-5.281-1.84-5.265-3.96.016-2.14 2.38-3.88 5.27-3.88h.055c2.872.02 5.283 1.84 5.267 3.96-.016 2.14-2.381 3.88-5.273 3.88z" fill="#777" fill-rule="evenodd"/></svg>