<svg xmlns="http://www.w3.org/2000/svg" width="387.344" height="414.81"><path d="M361.519 248.88h-31.3a157.074 157.074 0 0 1-12.456 32.43l21.951 23.51a29.208 29.208 0 0 1 0 39.31l-18.354 19.66a24.755 24.755 0 0 1-36.711 0l-21.952-23.51a135.811 135.811 0 0 1-30.282 13.34v33.53c0 15.27-11.56 27.65-25.823 27.65h-25.826c-14.262 0-25.823-12.38-25.823-27.65v-33.53a135.948 135.948 0 0 1-31.287-13.99l-22.563 24.16a24.754 24.754 0 0 1-36.71 0l-18.356-19.66a29.208 29.208 0 0 1 0-39.31l22.958-24.58a157.47 157.47 0 0 1-11.846-31.36H25.832C11.569 248.88.009 236.5.009 221.23v-27.65c0-15.28 11.56-27.66 25.823-27.66h31.307a157.515 157.515 0 0 1 12.457-32.43l-23.569-25.24a29.208 29.208 0 0 1 0-39.31l18.356-19.66a24.77 24.77 0 0 1 36.71 0l23.568 25.24a136.27 136.27 0 0 1 30.282-13.34V27.66c0-15.28 11.561-27.66 25.823-27.66h25.822c14.263 0 25.823 12.38 25.823 27.66v33.52a136.4 136.4 0 0 1 29.276 12.69l22.958-24.59a24.771 24.771 0 0 1 36.711 0l18.354 19.66a29.208 29.208 0 0 1 0 39.31l-22.563 24.17a156.988 156.988 0 0 1 13.072 33.5h31.3c14.263 0 25.823 12.38 25.823 27.66v27.65c.004 15.27-11.556 27.65-25.823 27.65zM193.677 124.44c42.785 0 77.467 37.15 77.467 82.96s-34.682 82.96-77.467 82.96-77.468-37.14-77.468-82.96 34.683-82.96 77.468-82.96zm0 41.48c21.393 0 38.734 18.57 38.734 41.48s-17.341 41.48-38.734 41.48-38.734-18.57-38.734-41.48 17.342-41.48 38.734-41.48z" fill="#fff" fill-rule="evenodd"/></svg>