<svg id="_icon_cheked.svg" xmlns="http://www.w3.org/2000/svg" width="31.406" height="31.41" viewBox="0 0 31.406 31.41">
  <defs>
    <style>
      .cls-1 {
        fill: #ccc;
        fill-rule: evenodd;
      }
    </style>
  </defs>
  <path id="Circle-3" class="cls-1" d="M529.968,1569.7a15.7,15.7,0,1,0,15.7-15.7A15.715,15.715,0,0,0,529.968,1569.7Zm1.256,0a14.443,14.443,0,1,1,14.443,14.45A14.459,14.459,0,0,1,531.224,1569.7Z" transform="translate(-529.969 -1554)"/>
  <path id="Checkmark-3" class="cls-1" d="M544.2,1576.03a1.033,1.033,0,0,1-.73-0.3l-4.315-4.31a1.033,1.033,0,0,1,1.461-1.46l3.584,3.58,8.589-8.59a1.036,1.036,0,1,1,1.461,1.47l-9.32,9.31A1.033,1.033,0,0,1,544.2,1576.03Z" transform="translate(-529.969 -1554)"/>
</svg>
